<svg width="161" height="167" viewBox="0 0 161 167" fill="none" xmlns="http://www.w3.org/2000/svg">
<path opacity="0.987" fill-rule="evenodd" clip-rule="evenodd" d="M70.7661 0.721406C79.3755 -0.240469 84.4699 -0.240469 93.7205 0.721406C110.095 3.14504 125.275 10.714 137.064 22.3339C129.098 29.8643 121.236 37.5046 113.48 45.2526C98.6288 32.6652 82.0513 29.7597 63.748 36.5364C50.3213 42.7114 40.9717 52.7181 35.6992 66.5564C27.0832 60.1419 18.5794 53.578 10.1917 46.8677C9.60884 46.5608 8.94307 46.4485 8.29175 46.547C21.6155 20.8574 42.4363 5.57828 70.7542 0.709531" fill="#F44336"/>
<path opacity="0.997" fill-rule="evenodd" clip-rule="evenodd" d="M8.26799 46.547C8.94091 46.4441 9.5782 46.551 10.1799 46.8676C18.5676 53.578 27.0713 60.1419 35.6874 66.5564C34.3315 71.9483 33.4769 77.454 33.1342 83.0033C33.4272 88.3708 34.2782 93.6393 35.6874 98.8089L8.90924 120.125C-2.75201 95.757 -2.96576 71.2312 8.26799 46.547Z" fill="#FFC107"/>
<path opacity="0.999" fill-rule="evenodd" clip-rule="evenodd" d="M135.794 145.941C127.456 138.588 118.727 131.69 109.645 125.278C118.749 118.85 124.275 110.031 126.222 98.8208H81.608V67.8389C107.337 67.6252 133.054 67.8429 158.76 68.4921C163.637 94.9733 158.004 118.85 141.862 140.122C139.942 142.162 137.909 144.105 135.794 145.941Z" fill="#448AFF"/>
<path opacity="0.993" fill-rule="evenodd" clip-rule="evenodd" d="M35.6874 98.8208C45.4249 123.022 63.277 134.319 89.2437 132.712C96.533 131.868 103.522 129.322 109.645 125.278C118.733 131.707 127.45 138.594 135.794 145.941C122.573 157.821 105.716 164.87 87.9731 165.938C83.942 166.261 79.8916 166.261 75.8606 165.938C45.6347 162.376 23.3176 147.105 8.9093 120.125L35.6874 98.8208Z" fill="#43A047"/>
</svg>
