<svg width="150" height="150" viewBox="0 0 150 150" fill="none" xmlns="http://www.w3.org/2000/svg">
<g clip-path="url(#clip0_49_43)">
<mask id="mask0_49_43" style="mask-type:luminance" maskUnits="userSpaceOnUse" x="0" y="0" width="150" height="150">
<path d="M150 0H0V150H150V0Z" fill="white"/>
</mask>
<g mask="url(#mask0_49_43)">
<path d="M74.7839 90.7082C83.158 90.7082 89.9466 83.8263 89.9466 75.3371C89.9466 66.8479 83.158 59.966 74.7839 59.966C66.4097 59.966 59.6211 66.8479 59.6211 75.3371C59.6211 83.8263 66.4097 90.7082 74.7839 90.7082Z" fill="#32CCB9"/>
<path fill-rule="evenodd" clip-rule="evenodd" d="M111.009 41.8825C112.678 43.8285 113.391 46.4172 112.956 48.9431C112.52 51.4691 110.981 53.6694 108.758 54.9445C108.643 55.0156 108.525 55.0827 108.409 55.1496C105.017 57.0943 100.722 56.3524 98.1798 53.3827C92.233 46.3909 83.5544 42.2524 74.292 42.2524C56.7986 42.2524 42.5962 56.7974 42.5962 74.7126C42.5962 92.6278 56.7986 107.173 74.292 107.173C91.5728 107.173 105.669 92.9966 105.983 75.302L123.025 75.619C122.543 102.829 100.866 124.629 74.292 124.629C47.391 124.629 25.5509 102.262 25.5509 74.7126C25.5509 47.163 47.391 24.7962 74.292 24.7962C88.5242 24.7962 101.86 31.1501 111.009 41.8825Z" fill="#32CCB9"/>
<path fill-rule="evenodd" clip-rule="evenodd" d="M148.283 75.6043C148.283 80.5184 144.293 84.5078 139.379 84.5078H106.606C101.692 84.5078 97.7029 80.5184 97.7029 75.6043C97.7029 70.6902 101.692 66.7006 106.606 66.7006H139.379C144.293 66.7006 148.283 70.6902 148.283 75.6043Z" fill="#32CCB9"/>
<path fill-rule="evenodd" clip-rule="evenodd" d="M135.603 32.8951C136.959 34.9385 137.381 37.4626 136.763 39.8358C136.145 42.2092 134.546 44.2072 132.366 45.3298C132.318 45.3548 132.27 45.3794 132.222 45.4041C128.341 47.4026 123.578 46.1732 121.149 42.5456C110.753 27.0759 93.4506 17.615 74.7453 17.615C43.6912 17.615 18.4792 43.3283 18.4792 74.9999C18.4792 106.672 43.6912 132.385 74.7453 132.385C105.82 132.385 131.011 106.693 131.011 74.9999H148.283C148.283 116.421 115.359 150 74.7453 150C34.1588 150 1.20776 116.394 1.20776 74.9999C1.20776 33.6064 34.1588 0 74.7453 0C99.3181 0 122.038 12.4925 135.603 32.8951Z" fill="#32CCB9"/>
</g>
</g>
<defs>
<clipPath id="clip0_49_43">
<rect width="150" height="150" fill="white"/>
</clipPath>
</defs>
</svg>
