<svg width="100" height="100" viewBox="0 0 100 100" fill="none" xmlns="http://www.w3.org/2000/svg">
<g clip-path="url(#clip0_76_245)">
<mask id="mask0_76_245" style="mask-type:luminance" maskUnits="userSpaceOnUse" x="0" y="0" width="100" height="100">
<path d="M100 0H0V100H100V0Z" fill="white"/>
</mask>
<g mask="url(#mask0_76_245)">
<path d="M49.8558 60.4721C55.4386 60.4721 59.9644 55.8842 59.9644 50.2247C59.9644 44.5653 55.4386 39.9774 49.8558 39.9774C44.2731 39.9774 39.7473 44.5653 39.7473 50.2247C39.7473 55.8842 44.2731 60.4721 49.8558 60.4721Z" fill="#32CCB9"/>
<path fill-rule="evenodd" clip-rule="evenodd" d="M74.0062 27.9217C75.1184 29.2189 75.5943 30.9447 75.304 32.6287C75.0137 34.3127 73.9876 35.7796 72.5051 36.6296C72.4283 36.677 72.3503 36.7218 72.2724 36.7664C70.0115 38.0628 67.1482 37.5682 65.4532 35.5884C61.4887 30.9272 55.703 28.1683 49.528 28.1683C37.8657 28.1683 28.3974 37.8649 28.3974 49.8084C28.3974 61.7518 37.8657 71.4485 49.528 71.4485C61.0485 71.4485 70.4458 61.9977 70.6551 50.2013L82.0167 50.4126C81.695 68.5528 67.2439 83.086 49.528 83.086C31.594 83.086 17.0339 68.1748 17.0339 49.8084C17.0339 31.442 31.594 16.5308 49.528 16.5308C59.0162 16.5308 67.9069 20.7667 74.0062 27.9217Z" fill="#32CCB9"/>
<path fill-rule="evenodd" clip-rule="evenodd" d="M98.8553 50.4029C98.8553 53.6789 96.1956 56.3386 92.9195 56.3386H71.071C67.7949 56.3386 65.1353 53.6789 65.1353 50.4029C65.1353 47.1268 67.7949 44.4671 71.071 44.4671H92.9195C96.1956 44.4671 98.8553 47.1268 98.8553 50.4029Z" fill="#1B1C4C"/>
<path fill-rule="evenodd" clip-rule="evenodd" d="M90.4019 21.9301C91.3059 23.2923 91.5872 24.9751 91.1753 26.5572C90.7634 28.1395 89.6973 29.4714 88.2438 30.2199C88.212 30.2365 88.1801 30.2529 88.1482 30.2694C85.5606 31.6017 82.3853 30.7821 80.7659 28.3638C73.835 18.0506 62.3004 11.7433 49.8302 11.7433C29.1274 11.7433 12.3195 28.8855 12.3195 50C12.3195 71.1144 29.1274 88.2567 49.8302 88.2567C70.5468 88.2567 87.3409 71.1286 87.3409 50H98.8552C98.8552 77.6142 76.906 100 49.8302 100C22.7725 100 0.805176 77.5958 0.805176 50C0.805176 22.4042 22.7725 0 49.8302 0C66.2121 0 81.3587 8.32834 90.4019 21.9301Z" fill="#1B1C4C"/>
</g>
</g>
<defs>
<clipPath id="clip0_76_245">
<rect width="100" height="100" fill="white"/>
</clipPath>
</defs>
</svg>
